# xmcd CD database file
#
# Track frame offsets:
#	150
#	19000
#	35735
#	54662
#	71575
#	90050
#	113377
#	128860
#	142050
#	159860
#
# Disc length: 2381 seconds
#
# Revision: 3
# Processed by: cddbd v1.5PL3 Copyright (c) Steve Scherf et al.
# Submitted via: CDex 1.50
#
DISCID=79094b0a
DTITLE=Kenny Rogers  - Greatest Hits
DYEAR=1988
DGENRE=Country
TTITLE0=Islands In The Stream (With Dolly Parton)
TTITLE1=Crazy
TTITLE2=Buried Treasure
TTITLE3=Twenty Years Ago
TTITLE4=I Don't Call Him Daddy
TTITLE5=I Prefer The Moonlight
TTITLE6=The Factory
TTITLE7=She's Ready For Someone To Love Her
TTITLE8=Make No Mistake, She's Mine (With Ronnie Milsap)
TTITLE9=Morning Desire
EXTD=YEAR: 1988
EXTT0=
EXTT1=
EXTT2=
EXTT3=
EXTT4=
EXTT5=
EXTT6=
EXTT7=
EXTT8=
EXTT9=
PLAYORDER=
